<svg id="editor" xmlns="http://www.w3.org/2000/svg" width="27" height="27" viewBox="0 0 27 27">
  <defs>
    <style>
      .cls-1 {
        fill: #2d3a4b;
      }
    </style>
  </defs>
  <path id="路径_1225" data-name="路径 1225" class="cls-1" d="M480.354,189.774a1.225,1.225,0,0,0,1.737,0L493.763,178.1a1.228,1.228,0,1,0-1.737-1.737l-11.672,11.672a1.227,1.227,0,0,0,0,1.737" transform="translate(-467.738 -175.39)"/>
  <path id="路径_1226" data-name="路径 1226" class="cls-1" d="M185.773,172.273a1.227,1.227,0,0,0-1.227,1.227l.01,11.045-22.1.01-.01-22.1H173.5a1.227,1.227,0,0,0,0-2.455H162.445A2.448,2.448,0,0,0,160,162.445v22.111A2.448,2.448,0,0,0,162.445,187h22.111A2.448,2.448,0,0,0,187,184.555V173.5a1.227,1.227,0,0,0-1.227-1.227" transform="translate(-160 -160)"/>
</svg>
