<svg xmlns="http://www.w3.org/2000/svg" width="27" height="26.999" viewBox="0 0 27 26.999">
  <defs>
    <style>
      .cls-1 {
        fill: #2d3a4b;
      }
    </style>
  </defs>
  <g id="createtask" transform="translate(-160 -160)">
    <path id="路径_5955" data-name="路径 5955" class="cls-1" d="M174.727,184.55l-12.273.006,0-3.694,0-6.136v-2.455l0-6.136v-3.682h22.1l.006-.007.01,22.1ZM184.539,160h-22.1A2.447,2.447,0,0,0,160,162.445v22.112A2.446,2.446,0,0,0,162.445,187h22.111A2.447,2.447,0,0,0,187,184.558V162.445A2.455,2.455,0,0,0,184.539,160Z"/>
    <path id="路径_5956" data-name="路径 5956" class="cls-1" d="M333.123,320h-8.152a1.161,1.161,0,1,0,0,2.323h8.152a1.161,1.161,0,1,0,0-2.323m0,5.807h-8.152a1.161,1.161,0,1,0,0,2.323h8.152a1.161,1.161,0,1,0,0-2.323m0,5.807h-8.152a1.161,1.161,0,1,0,0,2.323h8.152a1.161,1.161,0,1,0,0-2.323M321.165,320a1.161,1.161,0,1,0,1.165,1.161A1.163,1.163,0,0,0,321.165,320m0,5.807a1.161,1.161,0,1,0,1.165,1.161,1.163,1.163,0,0,0-1.165-1.161m0,5.807a1.161,1.161,0,1,0,1.165,1.161,1.163,1.163,0,0,0-1.165-1.161" transform="translate(-153.468 -153.469)"/>
  </g>
</svg>
