<svg id="组_4579" data-name="组 4579" xmlns="http://www.w3.org/2000/svg" width="80" height="80" viewBox="0 0 80 80">
  <defs>
    <style>
      .cls-1 {
        fill: none;
      }

      .cls-2 {
        fill: #e20421;
      }
    </style>
  </defs>
  <rect id="矩形_4747" data-name="矩形 4747" class="cls-1" width="80" height="80" transform="translate(0 0)"/>
  <path id="transaction_fill" class="cls-2" d="M253.153,214.859v-7.166h10.78a3.138,3.138,0,1,0,0-6.27h-9.422l.025-.023,9.374-8.958a3.038,3.038,0,0,0,0-4.434,3.389,3.389,0,0,0-4.64,0l-9.374,8.958-.024.023-.024-.023-9.374-8.959a3.39,3.39,0,0,0-4.64,0,3.038,3.038,0,0,0,0,4.434l9.374,8.958.025.023h-9.422a3.138,3.138,0,1,0,0,6.27h10.78v7.166h-10.78a3.138,3.138,0,1,0,0,6.27h10.78v2.686a3.284,3.284,0,0,0,6.561,0v-2.686h10.78a3.138,3.138,0,1,0,0-6.27H253.153Zm-29.836-39.642,18.332-6.533a28.031,28.031,0,0,1,16.186,0l18.332,6.533a13.082,13.082,0,0,1,8.093,11.518v27.033c0,21.185-34.518,33.723-34.518,33.723s-34.518-12.538-34.518-33.723V186.735A13.018,13.018,0,0,1,223.317,175.217Z" transform="translate(-208.895 -167.49)"/>
</svg>
