<svg xmlns="http://www.w3.org/2000/svg" width="27" height="27" viewBox="0 0 27 27">
  <defs>
    <style>
      .cls-1 {
        fill: #2d3a4b;
      }
    </style>
  </defs>
  <path id="trash_fill" class="cls-1" d="M185.773,164.909h-4.909v-3.274c0-.79-.643-1.635-2.45-1.635h-9.828c-1.807,0-2.45.844-2.45,1.635v3.274h-4.909a1.227,1.227,0,0,0,0,2.455h24.545a1.227,1.227,0,0,0,0-2.455Zm-17.182,6.136a1.227,1.227,0,0,1,2.455,0v8.074a1.227,1.227,0,0,1-2.455,0Zm7.364,0a1.227,1.227,0,0,1,2.455,0v8.074a1.227,1.227,0,0,1-2.455,0Zm1.227-1.808H162.455v15.307A2.482,2.482,0,0,0,164.91,187H182.09a2.48,2.48,0,0,0,2.456-2.456V169.238Z" transform="translate(-160 -160)"/>
</svg>
