<svg xmlns="http://www.w3.org/2000/svg" width="25" height="25" viewBox="0 0 25 25">
  <defs>
    <style>
      .cls-1 {
        fill: #889aa4;
      }

      .cls-2 {
        fill: none;
      }
    </style>
  </defs>
  <g id="组_4739" data-name="组 4739" transform="translate(15320 5027)">
    <path id="homepage_fill" class="cls-1" d="M144.676,149.543H133.518v0h2.818v-3.873c0-.026.007-.05.007-.075a4.163,4.163,0,0,1,8.326,0c0,.025.007.049.007.075Zm7.848-13.933-2.636-1.726v-3.345a1.043,1.043,0,1,0-2.085,0v1.981l-6.726-4.409a1.195,1.195,0,0,0-1.163,0l-11.447,7.5a1.043,1.043,0,1,0,1.143,1.744l.471-.31v12.806a1.886,1.886,0,0,0,1.974,1.779h16.9a1.887,1.887,0,0,0,1.974-1.779V137.059l.451.3a1.042,1.042,0,0,0,1.142-1.744Z" transform="translate(-15447.996 -5154.297)"/>
    <rect id="矩形_4915" data-name="矩形 4915" class="cls-2" width="25" height="25" transform="translate(-15320 -5027)"/>
  </g>
</svg>
