<svg xmlns="http://www.w3.org/2000/svg" width="25" height="25" viewBox="0 0 25 25">
  <defs>
    <style>
      .cls-1 {
        fill: #889aa4;
      }

      .cls-2 {
        fill: none;
      }
    </style>
  </defs>
  <g id="组_4733" data-name="组 4733" transform="translate(15289 5027)">
    <path id="picture_fill" class="cls-1" d="M180.283,177.812v2.473l-12.92.005H164.5l.03-.03,10.537-10.077,5.22,4.762v2.868Zm-12.169-12.741a3.043,3.043,0,1,1-3.043,3.043A3.046,3.046,0,0,1,168.114,165.071ZM180.3,160H162.02a2.021,2.021,0,0,0-2.02,2.02v18.273a2.023,2.023,0,0,0,2.02,2.02H180.3a2.023,2.023,0,0,0,2.018-2.02V162.02A2.022,2.022,0,0,0,180.3,160Z" transform="translate(-15447.641 -5185.701)"/>
    <rect id="矩形_4916" data-name="矩形 4916" class="cls-2" width="25" height="25" transform="translate(-15289 -5027)"/>
  </g>
</svg>
