<svg xmlns="http://www.w3.org/2000/svg" width="20" height="20" viewBox="0 0 20 20">
  <defs>
    <style>
      .cls-1 {
        fill: #889aa4;
      }
    </style>
  </defs>
  <path id="lock_fill" class="cls-1" d="M166.656,133.125a3.539,3.539,0,0,1,7.071,0v2.7h-7.071Zm4.253,10.527a.91.91,0,0,1-1.818,0v-3.478a.91.91,0,0,1,1.818,0Zm7.28-7.826h-2.644v-2.7a5.359,5.359,0,0,0-10.707,0v2.7h-3.027A1.779,1.779,0,0,0,160,137.568v8.691A1.78,1.78,0,0,0,161.811,148h16.378A1.78,1.78,0,0,0,180,146.259v-8.691A1.779,1.779,0,0,0,178.189,135.826Z" transform="translate(-160 -128)"/>
</svg>
