<svg xmlns="http://www.w3.org/2000/svg" width="25" height="25" viewBox="0 0 25 25">
  <defs>
    <style>
      .cls-1 {
        fill: none;
      }

      .cls-2 {
        fill: #889aa4;
      }
    </style>
  </defs>
  <g id="组_4730" data-name="组 4730" transform="translate(-28 -108)">
    <rect id="矩形_4744" data-name="矩形 4744" class="cls-1" width="25" height="25" transform="translate(28 108)"/>
    <g id="group_fill" transform="translate(-67.8 -50.633)">
      <path id="路径_1214" data-name="路径 1214" class="cls-2" d="M243.281,174.455a31.93,31.93,0,0,0-5.635-1.8,5.191,5.191,0,0,0,2.4-4.372v-3.089a5.183,5.183,0,0,0-10.367,0v3.089a5.189,5.189,0,0,0,2.186,4.229,30.916,30.916,0,0,0-6.358,1.935A2.553,2.553,0,0,0,224,176.7v3.728h.016a1.933,1.933,0,0,0,1.916,1.68h16.9a2,2,0,0,0,1.882-1.377l.05-.147V176.7a2.534,2.534,0,0,0-1.483-2.242" transform="translate(-124.225)"/>
      <path id="路径_1215" data-name="路径 1215" class="cls-2" d="M102.678,234.407c1.032-.322,1.52-.5,1.52-.5s.668-.294.492-.884c-.413-.787-.708-1.4-.708-3.7v-2.989s.177-1.454.737-1.592a.206.206,0,0,0,.033-.2.942.942,0,0,0-.867-.576,3.918,3.918,0,0,0-3.912,3.916v2.485a3.88,3.88,0,0,0,.946,2.523,20.365,20.365,0,0,0-3.763,1.636A2.11,2.11,0,0,0,96,236.37v2.711a.944.944,0,0,0,.944.944.934.934,0,0,0,.923-.84.918.918,0,0,0,.021-.1v-.432a4.023,4.023,0,0,1,1.8-3.276c.212-.094.439-.187.67-.278q1.166-.328,2.322-.687" transform="translate(0 -62.081)"/>
    </g>
  </g>
</svg>
