<svg xmlns="http://www.w3.org/2000/svg" width="25" height="25" viewBox="0 0 25 25">
  <defs>
    <style>
      .cls-1 {
        fill: none;
      }

      .cls-2 {
        fill: #889aa4;
      }
    </style>
  </defs>
  <g id="组_4742" data-name="组 4742" transform="translate(15665 5092)">
    <rect id="矩形_4915" data-name="矩形 4915" class="cls-1" width="25" height="25" transform="translate(-15665 -5092)"/>
    <path id="service_fill" class="cls-2" d="M176.222,112.448a6.58,6.58,0,0,1-11.4,0,.94.94,0,1,1,1.626-.94,4.7,4.7,0,0,0,8.143,0,.94.94,0,1,1,1.628.94M178.8,100.7H161.872A1.874,1.874,0,0,0,160,102.572v15.05a1.875,1.875,0,0,0,1.872,1.875H178.8a1.876,1.876,0,0,0,1.872-1.874v-15.05A1.875,1.875,0,0,0,178.8,100.7m-8.466-2.82a2.823,2.823,0,0,1,2.82,2.82h1.88a4.7,4.7,0,1,0-9.4,0h1.88a2.823,2.823,0,0,1,2.82-2.82" transform="translate(-15822.536 -5187.497)"/>
  </g>
</svg>
