<svg xmlns="http://www.w3.org/2000/svg" width="25" height="25" viewBox="0 0 25 25">
  <defs>
    <style>
      .cls-1 {
        fill: none;
      }

      .cls-2 {
        fill: #889aa4;
      }
    </style>
  </defs>
  <g id="组_4741" data-name="组 4741" transform="translate(-28 -28)">
    <rect id="矩形_4740" data-name="矩形 4740" class="cls-1" width="25" height="25" transform="translate(28 28)"/>
    <path id="manage_fill" class="cls-2" d="M168.526,129.337h-6.4A2.131,2.131,0,0,0,160,131.465v6.4a2.131,2.131,0,0,0,2.128,2.128h6.4a2.131,2.131,0,0,0,2.128-2.128v-6.4a2.131,2.131,0,0,0-2.128-2.128m15.614,3.822-4.525-4.524a2.131,2.131,0,0,0-3.009,0l-.626.626-3.9,3.9a2.132,2.132,0,0,0,0,3.009l.626.626,3.272,3.274.626.626a2.128,2.128,0,0,0,3.009,0l3.9-3.9.626-.625a2.129,2.129,0,0,0,0-3.009m-15.614,8.962h-6.4A2.131,2.131,0,0,0,160,144.25v6.4a2.131,2.131,0,0,0,2.128,2.128h6.4a2.131,2.131,0,0,0,2.128-2.128v-6.4a2.131,2.131,0,0,0-2.128-2.128m12.785,0h-6.4a2.131,2.131,0,0,0-2.128,2.128v6.4a2.131,2.131,0,0,0,2.128,2.128h6.4a2.131,2.131,0,0,0,2.128-2.128v-6.4a2.131,2.131,0,0,0-2.128-2.128" transform="translate(-131.9 -99.914)"/>
  </g>
</svg>
