<svg xmlns="http://www.w3.org/2000/svg" width="25" height="25" viewBox="0 0 25 25">
  <defs>
    <style>
      .cls-1 {
        fill: none;
      }

      .cls-2 {
        fill: #889aa4;
      }
    </style>
  </defs>
  <g id="组_4743" data-name="组 4743" transform="translate(15665 5060)">
    <rect id="矩形_5050" data-name="矩形 5050" class="cls-1" width="25" height="25" transform="translate(-15665 -5060)"/>
    <path id="interactive_fill" class="cls-2" d="M175.2,136.289a1.381,1.381,0,0,1,0-2.763h0a1.381,1.381,0,0,1,0,2.763m-4.6,0a1.381,1.381,0,1,1,0-2.763h0a1.381,1.381,0,0,1,0,2.763m10.443-7.368h0a1.53,1.53,0,0,0-1.386-.921H166.14a1.529,1.529,0,0,0-1.386.921,1.627,1.627,0,0,0-.149.67v3.935h-3.07A1.567,1.567,0,0,0,160,135.119v10.855a1.568,1.568,0,0,0,1.538,1.593H163.3a.386.386,0,0,1,.156.062l.007,1.32a.882.882,0,0,0,.04.234.908.908,0,0,0,.151.322,1.478,1.478,0,0,0,1.171.6h0a1.472,1.472,0,0,0,1.117-.531l.41-.39,1.291-1.229a1.428,1.428,0,0,0,.179-.234.456.456,0,0,1,.261-.152h6.964a1.507,1.507,0,0,0,1.118-.5l-.01-.01h.016l-.833-.787-.564-.542h-.01l-2.3-2.17h-6.015c-3.311-.029-3.4-2.733-3.4-2.733v-6.284a.754.754,0,0,0,.019-.093.793.793,0,0,0-.019-.093v-.007h0a.912.912,0,0,0-.9-.82H164.6v6.925a1.59,1.59,0,0,0,.069.442,1.541,1.541,0,0,0,1.465,1.149H173.1a.456.456,0,0,1,.26.15.915.915,0,0,0,.18.236l1.7,1.618a1.472,1.472,0,0,0,1.117.531,1.417,1.417,0,0,0,.216-.026,1.492,1.492,0,0,0,.955-.573.926.926,0,0,0,.192-.556l.007-1.32a.38.38,0,0,1,.154-.061h1.759a1.546,1.546,0,0,0,1.47-1.148,1.621,1.621,0,0,0,.068-.446V129.593a1.625,1.625,0,0,0-.148-.673" transform="translate(-15823 -5186.024)"/>
  </g>
</svg>
