<svg xmlns="http://www.w3.org/2000/svg" width="25" height="25" viewBox="0 0 25 25">
  <defs>
    <style>
      .cls-1 {
        fill: none;
      }

      .cls-2 {
        fill: #889aa4;
      }
    </style>
  </defs>
  <g id="组_4736" data-name="组 4736" transform="translate(-28 -428)">
    <rect id="矩形_4754" data-name="矩形 4754" class="cls-1" width="25" height="25" transform="translate(28 428)"/>
    <path id="customerservice_fill" class="cls-2" d="M180.073,136.963h-2v-2a7.029,7.029,0,0,0-14.058,0v2h-2A2.006,2.006,0,0,0,160,138.951v5.981a2.006,2.006,0,0,0,2.018,1.989h2.974c.009,0,.018.006.028.006s.019-.006.029-.006h.974V134.966a5.021,5.021,0,0,1,10.043,0v11.961a2.906,2.906,0,0,1-.8,2.293,3.891,3.891,0,0,1-2.452.755,1.99,1.99,0,1,0-.072,1.988,5.845,5.845,0,0,0,3.865-1.262,4.811,4.811,0,0,0,1.468-3.774v-.006h2a2.006,2.006,0,0,0,2.018-1.989v-5.981a2.006,2.006,0,0,0-2.018-1.989" transform="translate(-130.5 300)"/>
  </g>
</svg>
